<?xml version="1.0" encoding="utf-8"?>
<!-- Generator: Adobe Illustrator 16.0.0, SVG Export Plug-In . SVG Version: 6.00 Build 0)  -->
<!DOCTYPE svg PUBLIC "-//W3C//DTD SVG 1.1//EN" "http://www.w3.org/Graphics/SVG/1.1/DTD/svg11.dtd">
<svg version="1.1" id="Layer_1" xmlns="http://www.w3.org/2000/svg" xmlns:xlink="http://www.w3.org/1999/xlink" x="0px" y="0px"
	 width="1260px" height="288px" viewBox="0 0 1260 288" enable-background="new 0 0 1260 288" xml:space="preserve">
<polygon fill="#3D3D3D" points="1260,288 0,288 0,0 1260,0 "/>
<g opacity="0.5">
	<g>
		<g id="Layer_2">
			<g>
				<g>
					<g>
						<defs>
							<rect id="SVGID_1_" x="-6.787" y="-575.618" width="1266.787" height="895.8"/>
						</defs>
						<clipPath id="SVGID_2_">
							<use xlink:href="#SVGID_1_"  overflow="visible"/>
						</clipPath>
						<g clip-path="url(#SVGID_2_)">
							<g opacity="0.7">
								<path fill="none" stroke="#79ABD5" stroke-miterlimit="10" d="M62.166,130.714"/>
								<path fill="none" stroke="#79ABD5" stroke-miterlimit="10" d="M1147.202,344.188c0-148.898-102.679-269.617-229.336-269.617
									S688.533,195.288,688.533,344.188"/>
								<path fill="none" stroke="#79ABD5" stroke-miterlimit="10" d="M1403.034,344.188c0-99.728-68.771-180.574-153.604-180.574
									c-84.827,0-153.597,80.849-153.597,180.574"/>
								<path fill="none" stroke="#79ABD5" stroke-miterlimit="10" d="M1198.146,344.188c0-229.992-171.026-416.44-382.002-416.44
									c-210.979,0-382.003,186.448-382.003,416.44"/>
								<path fill="none" stroke="#79ABD5" stroke-miterlimit="10" d="M841.679,344.188c0-152.271-113.58-275.715-253.68-275.715
									c-140.104,0-253.686,123.446-253.686,275.715"/>
								<path fill="none" stroke="#79ABD5" stroke-miterlimit="10" d="M433.145,344.768c0-60.744-45.167-109.988-100.891-109.988
									c-55.719,0-100.893,49.244-100.893,109.988"/>
								<path fill="none" stroke="#79ABD5" stroke-miterlimit="10" d="M586.191,344.768c0-91.752-68.227-166.135-152.396-166.135
									c-84.163,0-152.396,74.383-152.396,166.135"/>
								<path fill="none" stroke="#79ABD5" stroke-miterlimit="10" d="M-47.833,343.594c0-31.219,23.218-56.519,51.851-56.519
									c28.633,0,51.847,25.3,51.847,56.519"/>
								<path fill="none" stroke="#79ABD5" stroke-miterlimit="10" d="M0.237,403.777c0-158.162,117.276-286.35,261.921-286.35
									c144.64,0,261.894,128.188,261.894,286.35"/>
								<path fill="none" stroke="#79ABD5" stroke-miterlimit="10" d="M334.313,343.598c0-260.826,193.403-472.223,431.939-472.223
									c238.526,0,431.895,211.397,431.895,472.223"/>
								<path fill="none" stroke="#79ABD5" stroke-miterlimit="10" d="M536.691,343.598c0-246.29,182.621-445.902,407.86-445.902
									c225.232,0,407.817,199.612,407.817,445.902"/>
								<path fill="none" stroke="#79ABD5" stroke-miterlimit="10" d="M432.824,343.598c0-277.23,205.563-501.919,459.102-501.919
									c253.527,0,459.055,224.691,459.055,501.919"/>
								<path fill="none" stroke="#79ABD5" stroke-miterlimit="10" d="M1198.146,344.178c0-151.758,112.525-274.757,251.315-274.757
									c138.783,0,251.291,122.999,251.291,274.757"/>
								<path fill="none" stroke="#79ABD5" stroke-miterlimit="10" d="M334.313,344.178c0-307.225,227.805-556.225,508.776-556.225
									c280.956,0,508.718,249,508.718,556.225"/>
								<path fill="none" stroke="#79ABD5" stroke-miterlimit="10" d="M177.03,343.969C177.03,179.191,299.206,45.65,449.9,45.65
									c150.684,0,272.84,133.542,272.84,298.319"/>
								<path fill="none" stroke="#79ABD5" stroke-miterlimit="10" d="M177.03,344.467c0-111.982,83.033-202.742,185.451-202.742
									c102.408,0,185.426,90.759,185.426,202.742"/>
								<path fill="none" stroke="#79ABD5" stroke-miterlimit="10" d="M55.76,343.598c0-83.828,62.157-151.771,138.824-151.771
									c76.661,0,138.808,67.942,138.808,151.771"/>
								<path fill="none" stroke="#79ABD5" stroke-miterlimit="10" d="M996.418,344.188c0-168.188-126.146-304.548-281.756-304.548
									c-155.605,0-281.75,136.359-281.75,304.548"/>
								<path fill="none" stroke="#79ABD5" stroke-miterlimit="10" d="M1403.506,344.188c0-167.771-125.83-303.792-281.054-303.792
									c-155.217,0-281.048,136.02-281.048,303.792"/>
								<path fill="none" stroke="#79ABD5" stroke-miterlimit="10" d="M536.78,344.188c0-198.981,147.97-360.305,330.501-360.305
									c182.523,0,330.498,161.321,330.498,360.305"/>
								<path fill="none" stroke="#79ABD5" stroke-miterlimit="10" d="M791.224,344.188c0-75.598,56.216-136.881,125.563-136.881
									c69.345,0,125.56,61.285,125.56,136.881"/>
								<path fill="none" stroke="#79ABD5" stroke-miterlimit="10" d="M739.757,344.188c0-106.978,79.552-193.694,177.688-193.694
									c98.127,0,177.676,86.723,177.676,193.694"/>
								<path fill="none" stroke="#79ABD5" stroke-miterlimit="10" d="M-198.872,344.188c0-45.867,33.78-83.049,75.445-83.049
									c41.671,0,75.451,37.184,75.451,83.049"/>
								<path fill="none" stroke="#79ABD5" stroke-miterlimit="10" d="M1095.063,344.188c0-136.902-102.115-247.891-228.08-247.891
									c-125.968,0-228.081,110.987-228.081,247.891"/>
								<path fill="none" stroke="#79ABD5" stroke-miterlimit="10" d="M1505.126,344.186c0-123.363-91.74-223.376-204.897-223.376
									c-113.176,0-204.905,100.016-204.905,223.38"/>
								<path fill="none" stroke="#79ABD5" stroke-miterlimit="10" d="M1146.77,344.188c0-61.478-45.717-111.319-102.113-111.319
									c-56.399,0-102.111,49.844-102.111,111.319"/>
								<path fill="none" stroke="#79ABD5" stroke-miterlimit="10" d="M1454.061,344.188c0-76.713-57.043-138.906-127.418-138.902
									c-70.368,0-127.414,62.189-127.414,138.902"/>
								<path fill="none" stroke="#79ABD5" stroke-miterlimit="10" d="M1558.256,344.188c0-62.146-46.212-112.533-103.227-112.531
									c-57.013,0-103.225,50.386-103.225,112.531"/>
								<path fill="none" stroke="#79ABD5" stroke-miterlimit="10" d="M841.869,344.188c0-30.305,22.54-54.871,50.34-54.871
									c27.796,0,50.33,24.566,50.33,54.871"/>
								<path fill="none" stroke="#79ABD5" stroke-miterlimit="10" d="M383.628,344.188c0-30.324,22.553-54.908,50.371-54.908
									c27.813,0,50.365,24.584,50.365,54.908"/>
								<path fill="none" stroke="#79ABD5" stroke-miterlimit="10" d="M791.888,344.188c0-45.354,33.729-82.119,75.327-82.119
									c41.604,0,75.324,36.766,75.324,82.119"/>
								<path fill="none" stroke="#79ABD5" stroke-miterlimit="10" d="M1351.807,344.188c0-30.773,22.886-55.723,51.113-55.723
									c28.229,0,51.111,24.945,51.111,55.723"/>
								<path fill="none" stroke="#79ABD5" stroke-miterlimit="10" d="M586.518,344.188c0-46.109,34.292-83.487,76.589-83.487
									c42.296,0,76.578,37.376,76.578,83.487"/>
								<path fill="none" stroke="#79ABD5" stroke-miterlimit="10" d="M484.56,344.188c0-92.326,68.659-167.17,153.349-167.17
									c84.688,0,153.34,74.842,153.34,167.17"/>
								<path fill="none" stroke="#79ABD5" stroke-miterlimit="10" d="M942.938,344.188c0-15.74,11.709-28.5,26.146-28.5
									s26.145,12.76,26.145,28.5"/>
							</g>
							<g opacity="0.3">
								<path fill="none" stroke="#79ABD5" stroke-miterlimit="10" d="M-449.656,301.986"/>
								<path fill="none" stroke="#79ABD5" stroke-miterlimit="10" d="M367.292,462.717c0-112.111-77.309-203.001-172.673-203.001
									c-95.362,0-172.669,90.89-172.669,203.001"/>
								<path fill="none" stroke="#79ABD5" stroke-miterlimit="10" d="M559.915,462.717c0-75.088-51.778-135.961-115.651-135.961
									c-63.869,0-115.645,60.873-115.645,135.961"/>
								<path fill="none" stroke="#79ABD5" stroke-miterlimit="10" d="M405.648,462.717c0-173.166-128.77-313.549-287.617-313.549
									c-158.849,0-287.617,140.38-287.617,313.549"/>
								<path fill="none" stroke="#79ABD5" stroke-miterlimit="10" d="M137.257,462.717c0-114.648-85.516-207.595-191.002-207.595
									c-105.488,0-191.005,92.946-191.005,207.595"/>
								<path fill="none" stroke="#79ABD5" stroke-miterlimit="10" d="M-170.336,463.152c0-45.736-34.009-82.814-75.964-82.814
									c-41.952,0-75.963,37.078-75.963,82.814"/>
								<path fill="none" stroke="#79ABD5" stroke-miterlimit="10" d="M-55.105,463.152c0-69.084-51.369-125.088-114.742-125.088
									c-63.368,0-114.742,56.004-114.742,125.088"/>
								<path fill="none" stroke="#79ABD5" stroke-miterlimit="10" d="M-532.477,462.268c0-23.504,17.482-42.553,39.04-42.553
									c21.559,0,39.038,19.049,39.038,42.553"/>
								<path fill="none" stroke="#79ABD5" stroke-miterlimit="10" d="M-496.283,507.582c0-119.084,88.3-215.602,197.207-215.602
									c108.903,0,197.185,96.518,197.185,215.602"/>
								<path fill="none" stroke="#79ABD5" stroke-miterlimit="10" d="M-244.75,462.271c0-196.383,145.616-355.547,325.216-355.547
									c179.592,0,325.182,159.165,325.182,355.547"/>
								<path fill="none" stroke="#79ABD5" stroke-miterlimit="10" d="M-92.375,462.271c0-185.438,137.5-335.729,307.088-335.729
									c169.582,0,307.055,150.292,307.055,335.729"/>
								<path fill="none" stroke="#79ABD5" stroke-miterlimit="10" d="M-170.579,462.271c0-208.734,154.773-377.909,345.667-377.909
									c190.887,0,345.632,169.175,345.632,377.909"/>
								<path fill="none" stroke="#79ABD5" stroke-miterlimit="10" d="M405.648,462.707c0-114.262,84.724-206.87,189.223-206.87
									c104.492,0,189.202,92.608,189.202,206.87"/>
								<path fill="none" stroke="#79ABD5" stroke-miterlimit="10" d="M-244.75,462.707c0-231.316,171.519-418.792,383.068-418.792
									c211.538,0,383.026,187.476,383.026,418.792"/>
								<path fill="none" stroke="#79ABD5" stroke-miterlimit="10" d="M-363.172,462.549c0-124.064,91.989-224.609,205.449-224.609
									c113.453,0,205.427,100.545,205.427,224.609"/>
								<path fill="none" stroke="#79ABD5" stroke-miterlimit="10" d="M-363.172,462.926c0-84.314,62.518-152.648,139.63-152.648
									c77.105,0,139.611,68.334,139.611,152.648"/>
								<path fill="none" stroke="#79ABD5" stroke-miterlimit="10" d="M-454.478,462.271c0-63.115,46.8-114.271,104.523-114.271
									c57.72,0,104.511,51.156,104.511,114.271"/>
								<path fill="none" stroke="#79ABD5" stroke-miterlimit="10" d="M253.764,462.717c0-126.637-94.979-229.304-212.141-229.304
									c-117.159,0-212.137,102.667-212.137,229.304"/>
								<path fill="none" stroke="#79ABD5" stroke-miterlimit="10" d="M560.269,462.717c0-126.32-94.739-228.732-211.609-228.732
									c-116.867,0-211.607,102.412-211.607,228.732"/>
								<path fill="none" stroke="#79ABD5" stroke-miterlimit="10" d="M-92.308,462.717c0-149.82,111.41-271.283,248.841-271.283
									c137.428,0,248.839,121.463,248.839,271.283"/>
								<path fill="none" stroke="#79ABD5" stroke-miterlimit="10" d="M99.269,462.717c0-56.92,42.325-103.063,94.537-103.063
									c52.211,0,94.537,46.145,94.537,103.063"/>
								<path fill="none" stroke="#79ABD5" stroke-miterlimit="10" d="M60.518,462.717c0-80.547,59.896-145.838,133.784-145.838
									c73.883,0,133.776,65.295,133.776,145.838"/>
								<path fill="none" stroke="#79ABD5" stroke-miterlimit="10" d="M-646.196,462.717c0-34.535,25.433-62.531,56.805-62.531
									c31.375,0,56.807,27.998,56.807,62.531"/>
								<path fill="none" stroke="#79ABD5" stroke-miterlimit="10" d="M328.037,462.717c0-103.078-76.887-186.645-171.729-186.645
									c-94.842,0-171.728,83.564-171.728,186.645"/>
								<path fill="none" stroke="#79ABD5" stroke-miterlimit="10" d="M636.781,462.715c0-92.885-69.073-168.188-154.273-168.188
									c-85.212,0-154.279,75.305-154.279,168.188"/>
								<path fill="none" stroke="#79ABD5" stroke-miterlimit="10" d="M366.966,462.717c0-46.289-34.42-83.816-76.884-83.816
									c-42.465,0-76.883,37.527-76.883,83.816"/>
								<path fill="none" stroke="#79ABD5" stroke-miterlimit="10" d="M598.332,462.717c0-57.76-42.949-104.586-95.936-104.586
									c-52.983,0-95.934,46.826-95.934,104.586"/>
								<path fill="none" stroke="#79ABD5" stroke-miterlimit="10" d="M676.784,462.717c0-46.793-34.793-84.73-77.725-84.73
									c-42.923,0-77.717,37.939-77.717,84.73"/>
								<path fill="none" stroke="#79ABD5" stroke-miterlimit="10" d="M137.401,462.717c0-22.818,16.971-41.314,37.901-41.314
									c20.93,0,37.896,18.496,37.896,41.314"/>
								<path fill="none" stroke="#79ABD5" stroke-miterlimit="10" d="M-207.619,462.717c0-22.832,16.979-41.344,37.926-41.344
									c20.942,0,37.921,18.512,37.921,41.344"/>
								<path fill="none" stroke="#79ABD5" stroke-miterlimit="10" d="M99.768,462.717c0-34.15,25.395-61.83,56.715-61.83
									c31.323,0,56.714,27.68,56.714,61.83"/>
								<path fill="none" stroke="#79ABD5" stroke-miterlimit="10" d="M521.345,462.717c0-23.17,17.229-41.957,38.484-41.957
									c21.253,0,38.483,18.785,38.483,41.957"/>
								<path fill="none" stroke="#79ABD5" stroke-miterlimit="10" d="M-54.859,462.717c0-34.719,25.818-62.861,57.663-62.861
									c31.846,0,57.661,28.141,57.661,62.861"/>
								<path fill="none" stroke="#79ABD5" stroke-miterlimit="10" d="M-131.626,462.717c0-69.516,51.695-125.867,115.458-125.867
									c63.766,0,115.454,56.352,115.454,125.867"/>
								<path fill="none" stroke="#79ABD5" stroke-miterlimit="10" d="M213.497,462.717c0-11.854,8.814-21.459,19.686-21.459
									s19.685,9.605,19.685,21.459"/>
							</g>
						</g>
					</g>
				</g>
			</g>
		</g>
	</g>
</g>
</svg>
